<svg height="37" viewBox="0 0 180 37" width="180" xmlns="http://www.w3.org/2000/svg"><g fill="none"><path d="m10.3822526.43002908c-3.86031828.0031723-7.40054042 2.14663721-9.19262279 5.56577566-1.79208236 3.41913845-1.54045802 7.55003426.6533736 10.72637956l5.90989761-5.9037543h-4.91467576v-3.76587027h11.32832764v11.32832767h-3.7228669v-4.9146758l-5.94061433 5.9098976c3.68159601 2.533667 8.57105973 2.4287159 12.14054583-.2605937 3.5694861-2.6893097 5.0189103-7.3601811 3.5989223-11.59778088s-5.391104-7.09208876-9.8602872-7.08770554z" fill="#e6411a"/><g fill="#003554"><path d="m43.3474403 7.05870307-2.6846417 7.56860073-3.0163822-7.56860073h-3.0716724l-3.0716723 7.35358363-2.5249147-7.35358363h-5.0559727l5.4552901 13.82866893h3.7720137l2.9119453-5.793174 3.010239 5.793174h3.6430034l5.6948805-13.82866893z"/><path d="m62.840273 13.6566553c-.0150229-.6751902-.1140788-1.3458811-.2948805-1.996587-.0552901-.2150171-.1167236-.4300342-.1904437-.6143345-.3055134-.8931058-.8024184-1.70870082-1.4559727-2.3897611-.6535491-.66834485-1.4493971-1.18071143-2.3283276-1.49897611-.9847786-.35437145-2.0251562-.52915488-3.0716724-.51604096-1.0688064-.01642381-2.131943.15833837-3.1392491.51604096-.8883977.30962993-1.7023544.80135189-2.3897611 1.443686-.663319.65527241-1.1786265 1.44499151-1.5112628 2.31604091-.3649769.9822931-.5441307 2.0238852-.5283277 3.0716724-.016386 1.014729.1738186 2.0221861.5590444 2.9610922.3545997.8637835.8909803 1.6411163 1.5726962 2.2791808.7096048.6529613 1.5460966 1.1527651 2.4573379 1.4682594 1.0124727.3541198 2.0789968.5287553 3.1515359.516041 2.6170648 0 4.5481228-.7617748 5.793174-2.2853242l-3.1638225-2.3406144c-.6161143.8699508-1.6392266 1.3582544-2.7030717 1.2901024-.3954078.0006791-.7866324-.0809132-1.1488054-.2395904-.5497883-.2118375-1.0097523-.6067123-1.3023891-1.1180888-.2634651-.4174882-.4157336-.8954422-.4423208-1.3883959h10.0566553c.0589549-.4891818.0856338-.9817149.0798634-1.4744027zm-10.124232-1.3699659c.0683712-.7742812.4473358-1.4878871 1.0505119-1.978157.0985515-.073219.201099-.1409003.3071672-.2027304l.0860069-.0491467c.8505813-.49888627 1.8974929-.52705662 2.7736721-.07463409.8761791.45242249 1.4593708 1.32231049 1.5450992 2.30466819z"/><path d="m64.228669 0h4.902389v20.887372h-4.902389z"/><path d="m77.6334471 6.6225256v-6.6225256h-4.9945393v6.6225256h-1.4252559v4.3003413h1.4252559v9.9645051h4.9945393v-9.9645051h2.8382253v-4.3003413z"/><path d="m91.7447099 13.2081911c-.7474411-.4551384-1.5593237-.7948036-2.4081911-1.0075085-.7005924-.1338087-1.3788999-.3654259-2.0150171-.6880546-.1672073-.1280464-.2685699-.3240142-.2764505-.534471 0-.5651877.4668942-1.00136519 1.3208191-1.00136519 1.010776.06236449 1.9817556.41661199 2.7952219 1.01979519l1.6341296-3.19453922c-1.5530634-.775823-3.2646264-1.18163584-5.0006826-1.18566553-3.7720136-.07372013-5.9098976 1.80614335-5.7378839 4.95767915.0572948 1.0795057.6313481 2.0652307 1.5419795 2.6477816.8489386.5011287 1.7625614.8835274 2.7153584 1.1365188 1.1610921.2948805 1.462116.4116041 1.7385665.6143344.1675679.1591528.2573155.383522.2457338.6143345 0 .6143345-.4238908 1.0320819-1.4313993 1.0075085-1.3460821-.1218242-2.627241-.6342877-3.6860068-1.4744027l-1.8737202 3.5385666c1.6348669.9779697 3.5011576 1.5018036 5.4061434 1.5174061 4.1221843.1167236 6.6102389-1.8122867 6.6102389-5.1051194-.016873-1.1576005-.608788-2.2308783-1.5788396-2.8627987z"/><path d="m104.062116 6.61638225c-1.518008-.0708725-2.987874.54232314-4.005461 1.67098976v-1.22866894h-4.6443683v20.38976113h4.6443683v-7.7897611c1.086986 1.0529927 2.561422 1.6089641 4.073038 1.5358361 3.76587 0 6.536519-3.0225255 6.536519-7.2430034 0-4.22047778-2.868942-7.33515355-6.604096-7.33515355zm-.989078 10.27167235c-1.638759 0-2.967236-1.3284766-2.967236-2.9672355s1.328477-2.9672355 2.967236-2.9672355c1.638758 0 2.967235 1.3284766 2.967235 2.9672355s-1.328477 2.9672355-2.967235 2.9672355z"/><path d="m122.5843 8.31194539c-1.005449-1.1409539-2.47398-1.76451455-3.993174-1.69556314-3.722867 0-6.585665 3.22525598-6.585665 7.37201365 0 4.1467577 2.764505 7.2368601 6.518088 7.2368601 1.513038.0683034 2.985602-.4997809 4.060751-1.5665529v1.2286689h4.638226v-13.83481227h-4.638226zm-3.004095 8.60068901c-1.198206.0024795-2.279812-.7173892-2.740069-1.8236744s-.208437-2.3809101.637944-3.2290507c.846381-.8481407 2.12048-1.1026072 3.227719-.6446487s1.829355 1.5380668 1.829355 2.7362752c-.013469 1.6233694-1.331527 2.9332066-2.954949 2.9365188z"/><path d="m130.005461 7.058703h5.037543v13.828669h-5.037543z"/><path d="m156.69215 13.6566553c-.015023-.6751902-.114079-1.3458811-.29488-1.996587-.05529-.2150171-.116724-.4300342-.190444-.6143345-.30314-.8942165-.800343-1.71030066-1.455973-2.3897611-.653549-.66834485-1.449397-1.18071143-2.328327-1.49897611-.984779-.35437145-2.025157-.52915488-3.071673-.51604096-1.066796-.01635121-2.127904.1584195-3.133106.51604096-.891284.30736232-1.707696.79930317-2.395904 1.443686-.663319.65527241-1.178626 1.44499151-1.511263 2.31604091-.364977.9822931-.544131 2.0238852-.528327 3.0716724-.016386 1.014729.173818 2.0221861.559044 2.9610922.356779.8626004.89286 1.6394991 1.572696 2.2791808.710131.6522568 1.546468 1.1519685 2.457338 1.4682594 1.010342.3541489 2.074856.5287956 3.145393.516041 2.617064 0 4.548122-.7617748 5.793174-2.2853242l-3.15768-2.3406144c-.616114.8699508-1.639226 1.3582544-2.703071 1.2901024-.395353.0001449-.786469-.0814248-1.148806-.2395904-.549788-.2118375-1.009752-.6067123-1.302389-1.1180888-.263465-.4174882-.415733-.8954422-.442321-1.3883959h10.062799c.057099-.4893009.081726-.9818465.07372-1.4744027zm-10.124232-1.3699659c.071092-.7734721.44953-1.4860858 1.050512-1.978157h.030717c.095458-.0745586.196048-.142303.301024-.2027304l.086006-.0491467c.850582-.49888627 1.897493-.52705662 2.773673-.07463409.876179.45242249 1.45937 1.32231049 1.545099 2.30466819z"/><path d="m167.098976 6.6225256c-2.985665 0-4.079181 1.84300341-4.079181 1.84300341v-1.40682594h-4.945392v13.82866893h4.945392v-7.6177474c0-1.8.743345-2.7399318 2.303754-2.7399318 1.56041 0 2.273038.9522185 2.273038 2.7522185v7.6054607h4.914796v-8.8955631c.012166-1.78157-.915479-5.3692833-5.412407-5.3692833z"/><path d="m176.860751 15.290785c-1.195165 0-2.272647.7199501-2.730017 1.8241388s-.204557 2.3751649.640553 3.2202743c.845109.8451095 2.116085 1.0979223 3.220274.6405524 1.104188-.4573699 1.824139-1.5348515 1.824139-2.7300167 0-1.6319732-1.322976-2.9549488-2.954949-2.9549488z"/><path d="m138.34198 6.62251917c-1.195722-.00247948-2.275087.71589242-2.734393 1.81988201-.459307 1.1039896-.208012 2.37597212.636612 3.22235582s2.116081 1.1003246 3.221024.6433169c1.104943-.4570076 1.825562-1.5348758 1.825562-2.7305995 0-1.62957704-1.319232-2.95156091-2.948805-2.95495523z"/></g><path d="m126.829352 27.2948805c-.336301-.0023822-.670623.0516077-.989079.159727-.37417.1492766-.722471.3565989-1.032082.6143345l.331741-2.9119454h-1.511263l-1.044369 8.7419795h1.511263l.11058-.8600683c.585028.648223 1.41829 1.0168242 2.291468 1.0136519.904531.0138019 1.771866-.3595099 2.383618-1.0259385.6474-.6805295.994834-1.5922677.964505-2.5310581.044131-.8474112-.257349-1.6764822-.835495-2.2976109-.560413-.6047586-1.356993-.93461-2.180887-.9030717zm.884641 4.8163823c-.373146.4257542-.914482.6660985-1.480546.6573379-.488291.0204152-.961348-.1723949-1.296246-.5283277-.34156-.3722458-.520647-.8652881-.497611-1.3699658-.023795-.6059744.1825-1.1985228.577475-1.6587031.366744-.4273196.905249-.6684075 1.468259-.6573379.502101-.0167165.98734.1822989 1.333106.5467577.346477.3847717.529382.8894132.509898 1.4068259.010779.5938932-.209479 1.1687667-.614335 1.603413z" fill="#e6411a"/><path d="m133.488737 31.5583618-1.591126-4.1037543h-1.609556l2.297611 5.6211604-1.67099 2.9365188h1.720136l4.902389-8.5576792h-1.726279z" fill="#e6411a"/><path d="m143.784983 28.0013652.067577-.5467577h-1.50512l-.792491 6.4197952h1.505119l.399318-3.2068259c.034476-.3065019.089895-.6102838.16587-.909215.055284-.2173672.144429-.424681.264164-.6143345.186776-.3062663.526399-.4855118.884641-.4668942.312358.0141162.609087.1406622.835495.356314l.958362-1.2286689c-.333664-.3125174-.771571-.4898695-1.228669-.497611-.588448.0213463-1.145651.2702155-1.554266.694198z" fill="#e6411a"/><path d="m152.281229 28.2962457c-.278823-.3222227-.619293-.5854078-1.001366-.7740614-.369265-.1623723-.770191-.2400386-1.173378-.2273038-.908108-.0269609-1.782884.3431367-2.395905 1.0136519-.6128.7256375-.928782 1.6560286-.884641 2.6047782-.048757.8259776.229272 1.637998.774061 2.2607508.533391.5767578 1.291312.8929319 2.076451.8662116.753237-.0324159 1.468245-.3407223 2.008873-.8662116l-.09215.694198h1.50512l.792491-6.4197952h-1.505119zm-.829352 3.8088738c-.356446.4249823-.882868.6701959-1.437543.6696245-.468759.013944-.919285-.1820347-1.228668-.534471-.328182-.3863343-.499211-.8818824-.479181-1.3883959-.01408-.595979.188973-1.1767544.571331-1.6341297.346949-.4262012.869593-.6705544 1.419112-.6634812.482347-.013344.946595.1840175 1.271673.5406143.335485.3804029.511499.8754436.491467 1.3822526.009369.5998634-.207809 1.1811996-.608191 1.6279864z" fill="#e6411a"/><path d="m156.575427 25.1324232c-.213366-.001447-.417866.0852433-.565188.2395905-.153335.1475245-.237981.3524564-.233447.5651877-.007019.228842.079493.4506678.23959.6143344.152396.1545804.360404.2416088.577475.2416088.21707 0 .425078-.0870284.577474-.2416088.224119-.243996.282893-.597369.14982-.9007744-.133072-.3034054-.432849-.4995189-.764154-.4999082z" fill="#e6411a"/><path d="m154.922867 33.8744027h1.505119l.792492-6.4197952h-1.50512z" fill="#e6411a"/><path d="m160.906485 28.4744027c.42484.0361656.821109.2288264 1.111945.5406144l.853925-.8539249c-.515035-.5695005-1.241257-.9026298-2.008874-.9215018-.597337-.0229035-1.18119.1812259-1.634129.5713311-.407066.3700981-.631575.8999408-.614335 1.4498294-.011688.349232.087213.6932352.282594.9829351.275056.327751.616309.5936351 1.001365.7802048.270307.1474403.485324.2703072.645051.374744.11695.0757975.229741.1578272.337884.2457338.129634.120111.201264.2902313.196587.4668942.00516.2021687-.080496.3960218-.233447.5283276-.173491.1403414-.391254.2143808-.614334.2088738-.520854-.0336121-.998011-.3027196-1.296246-.7310581l-1.050512.6880547c.515866.7914439 1.395894 1.2695692 2.340614 1.2716723.607835.0279875 1.205409-.163934 1.683277-.5406143.416445-.3712154.642332-.9110849.614334-1.4682594.016868-.3697595-.093736-.7340994-.31331-1.0320819-.326589-.3667515-.720811-.6671113-1.161092-.8846417-.28546-.1418589-.551753-.3193876-.792492-.5283276-.1274-.1242014-.198433-.2951232-.196587-.4730376.000862-.1869247.086783-.3632882.233447-.4791808.170877-.1439135.391653-.2145618.614335-.1965871z" fill="#e6411a"/><path d="m165.255973 25.1324232c-.213366-.001447-.417866.0852433-.565188.2395905-.151078.1485822-.233441.3533775-.227304.5651877-.009371.2280699.074979.4500437.233447.6143344.15194.1594528.363384.2484818.583618.2457338.215349.0024126.422117-.0842967.571331-.2395904.154967-.146893.241777-.3516754.239591-.5651877.010851-.2319207-.081342-.4567822-.251878-.6143345-.150603-.1613783-.362939-.2507832-.583617-.2457338z" fill="#e6411a"/><path d="m163.609556 33.8744027h1.50512l.792491-6.4197952h-1.505119z" fill="#e6411a"/><path d="m172.480546 27.8232082c-.413763-.3653918-.953755-.5549402-1.505119-.5283277-.672174.0263945-1.312768.2922191-1.806144.7494881l.067577-.6143345h-1.523549l-.792492 6.4197953h1.50512l.380887-3.0716724c.03686-.2580205.067577-.4853242.11058-.6819113.033962-.1726961.085422-.3414849.153584-.5037542.104746-.2678051.278558-.5030873.503754-.6819113.277465-.235684.63122-.3623367.995222-.356314.614334 0 .939932.2948806.939932.872355v.2948805c0 .1105802 0 .2334471-.03686.374744l-.460751 3.778157h1.498976l.430034-3.4464164c.049916-.3891916.076584-.781013.079863-1.1733788.035728-.5329293-.161504-1.0551468-.540614-1.4313993z" fill="#e6411a"/></g></svg>